%TF.GenerationSoftware,KiCad,Pcbnew,(6.0.4)*%
%TF.CreationDate,2022-03-20T23:12:24-04:00*%
%TF.ProjectId,main,6d61696e-2e6b-4696-9361-645f70636258,rev?*%
%TF.SameCoordinates,Original*%
%TF.FileFunction,Copper,L2,Bot*%
%TF.FilePolarity,Positive*%
%FSLAX46Y46*%
G04 Gerber Fmt 4.6, Leading zero omitted, Abs format (unit mm)*
G04 Created by KiCad (PCBNEW (6.0.4)) date 2022-03-20 23:12:24*
%MOMM*%
%LPD*%
G01*
G04 APERTURE LIST*
G04 Aperture macros list*
%AMRoundRect*
0 Rectangle with rounded corners*
0 $1 Rounding radius*
0 $2 $3 $4 $5 $6 $7 $8 $9 X,Y pos of 4 corners*
0 Add a 4 corners polygon primitive as box body*
4,1,4,$2,$3,$4,$5,$6,$7,$8,$9,$2,$3,0*
0 Add four circle primitives for the rounded corners*
1,1,$1+$1,$2,$3*
1,1,$1+$1,$4,$5*
1,1,$1+$1,$6,$7*
1,1,$1+$1,$8,$9*
0 Add four rect primitives between the rounded corners*
20,1,$1+$1,$2,$3,$4,$5,0*
20,1,$1+$1,$4,$5,$6,$7,0*
20,1,$1+$1,$6,$7,$8,$9,0*
20,1,$1+$1,$8,$9,$2,$3,0*%
G04 Aperture macros list end*
%TA.AperFunction,ComponentPad*%
%ADD10R,1.700000X1.700000*%
%TD*%
%TA.AperFunction,ComponentPad*%
%ADD11O,1.700000X1.700000*%
%TD*%
%TA.AperFunction,ComponentPad*%
%ADD12RoundRect,0.850000X-1.750000X0.000000X1.750000X0.000000X1.750000X0.000000X-1.750000X0.000000X0*%
%TD*%
%TA.AperFunction,ViaPad*%
%ADD13C,0.600000*%
%TD*%
%TA.AperFunction,ViaPad*%
%ADD14C,0.800000*%
%TD*%
%TA.AperFunction,Conductor*%
%ADD15C,0.200000*%
%TD*%
%TA.AperFunction,Conductor*%
%ADD16C,0.500000*%
%TD*%
G04 APERTURE END LIST*
D10*
%TO.P,J1,1,Pin_1*%
%TO.N,BAT+*%
X137800000Y-48895000D03*
D11*
%TO.P,J1,2,Pin_2*%
%TO.N,GND*%
X135260000Y-48895000D03*
%TD*%
D10*
%TO.P,J2,1,Pin_1*%
%TO.N,DSO*%
X144780000Y-83820000D03*
D11*
%TO.P,J2,2,Pin_2*%
%TO.N,Net-(J2-Pad2)*%
X144780000Y-81280000D03*
%TO.P,J2,3,Pin_3*%
%TO.N,SCK*%
X147320000Y-83820000D03*
%TO.P,J2,4,Pin_4*%
%TO.N,DSI*%
X147320000Y-81280000D03*
%TO.P,J2,5,Pin_5*%
%TO.N,RESET*%
X149860000Y-83820000D03*
%TO.P,J2,6,Pin_6*%
%TO.N,GND*%
X149860000Y-81280000D03*
%TD*%
D10*
%TO.P,J4,1,Pin_1*%
%TO.N,GND*%
X158750000Y-52070000D03*
D11*
%TO.P,J4,2,Pin_2*%
%TO.N,+3V3*%
X158750000Y-54610000D03*
%TO.P,J4,3,Pin_3*%
%TO.N,BAT+*%
X158750000Y-57150000D03*
%TO.P,J4,4,Pin_4*%
%TO.N,INT1*%
X158750000Y-59690000D03*
%TO.P,J4,5,Pin_5*%
%TO.N,SCL*%
X158750000Y-62230000D03*
%TO.P,J4,6,Pin_6*%
%TO.N,SDA*%
X158750000Y-64770000D03*
%TO.P,J4,7,Pin_7*%
%TO.N,PC3*%
X158750000Y-67310000D03*
%TO.P,J4,8,Pin_8*%
%TO.N,PC2*%
X158750000Y-69850000D03*
%TO.P,J4,9,Pin_9*%
%TO.N,PC1*%
X158750000Y-72390000D03*
%TO.P,J4,10,Pin_10*%
%TO.N,PC0*%
X158750000Y-74930000D03*
%TO.P,J4,11,Pin_11*%
%TO.N,PB0*%
X158750000Y-77470000D03*
%TD*%
D10*
%TO.P,J3,1,Pin_1*%
%TO.N,DTR*%
X158750000Y-95250000D03*
D11*
%TO.P,J3,2,Pin_2*%
%TO.N,MTX*%
X158750000Y-92710000D03*
%TO.P,J3,3,Pin_3*%
%TO.N,MRX*%
X158750000Y-90170000D03*
%TO.P,J3,4,Pin_4*%
%TO.N,Net-(J3-Pad4)*%
X158750000Y-87630000D03*
%TO.P,J3,5,Pin_5*%
%TO.N,GND*%
X158750000Y-85090000D03*
%TO.P,J3,6,Pin_6*%
%TO.N,Net-(J3-Pad6)*%
X158750000Y-82550000D03*
%TD*%
D10*
%TO.P,J5,1,Pin_1*%
%TO.N,+3V3*%
X149000000Y-53340000D03*
D11*
%TO.P,J5,2,Pin_2*%
%TO.N,GND*%
X149000000Y-55880000D03*
%TO.P,J5,3,Pin_3*%
%TO.N,SCL*%
X149000000Y-58420000D03*
%TO.P,J5,4,Pin_4*%
%TO.N,SDA*%
X149000000Y-60960000D03*
%TO.P,J5,5,Pin_5*%
%TO.N,unconnected-(J5-Pad5)*%
X149000000Y-63500000D03*
%TO.P,J5,6,Pin_6*%
%TO.N,unconnected-(J5-Pad6)*%
X149000000Y-66040000D03*
%TD*%
D12*
%TO.P,TP2,1,1*%
%TO.N,GND*%
X109250000Y-47500000D03*
%TD*%
%TO.P,TP1,1,1*%
%TO.N,BAT+*%
X152750000Y-47500000D03*
%TD*%
D13*
%TO.N,OPTION*%
X138712800Y-70213900D03*
X140175400Y-77393000D03*
%TO.N,PB0*%
X136279600Y-72249500D03*
%TO.N,MTX*%
X142940800Y-65835100D03*
%TO.N,MRX*%
X143619900Y-66425700D03*
%TO.N,CLKINT*%
X121940500Y-75576300D03*
X136009400Y-65553400D03*
%TO.N,SS2*%
X134312200Y-74989400D03*
X108966700Y-73804000D03*
%TO.N,DSI*%
X136045000Y-76498800D03*
X113746000Y-77370000D03*
%TO.N,DSO*%
X139023900Y-79316600D03*
%TO.N,SS*%
X133665800Y-76847000D03*
X106209700Y-93099200D03*
%TO.N,SCK*%
X116546100Y-83785600D03*
X139195100Y-78432900D03*
%TO.N,SDA*%
X129926200Y-64561900D03*
%TO.N,SCL*%
X113026200Y-59648500D03*
X104371200Y-56437100D03*
X115110100Y-61783000D03*
X123362000Y-65230100D03*
%TO.N,RESET*%
X142410400Y-67130700D03*
D14*
%TO.N,+3V3*%
X123483600Y-58149800D03*
X120850100Y-62976400D03*
X126328400Y-53175100D03*
%TD*%
D15*
%TO.N,OPTION*%
X138712800Y-70213900D02*
X140175400Y-77393000D01*
%TO.N,PB0*%
X138156200Y-69789300D02*
X136279600Y-72249500D01*
X138166260Y-69776520D02*
X138156250Y-69789340D01*
X138176570Y-69763950D02*
X138166260Y-69776520D01*
X138187160Y-69751610D02*
X138176570Y-69763950D01*
X138198040Y-69739530D02*
X138187160Y-69751610D01*
X138209200Y-69727700D02*
X138198040Y-69739530D01*
X142437200Y-65348900D02*
X138209200Y-69727700D01*
X142465540Y-65321160D02*
X142437200Y-65348900D01*
X142495400Y-65295070D02*
X142465540Y-65321160D01*
X142526700Y-65270710D02*
X142495400Y-65295070D01*
X142559330Y-65248170D02*
X142526700Y-65270710D01*
X142593180Y-65227510D02*
X142559330Y-65248170D01*
X142628140Y-65208790D02*
X142593180Y-65227510D01*
X142664110Y-65192090D02*
X142628140Y-65208790D01*
X142700970Y-65177460D02*
X142664110Y-65192090D01*
X142738600Y-65164930D02*
X142700970Y-65177460D01*
X142776870Y-65154560D02*
X142738600Y-65164930D01*
X142815680Y-65146360D02*
X142776870Y-65154560D01*
X142854880Y-65140380D02*
X142815680Y-65146360D01*
X142894360Y-65136630D02*
X142854880Y-65140380D01*
X142933990Y-65135120D02*
X142894360Y-65136630D01*
X142973640Y-65135860D02*
X142933990Y-65135120D01*
X143013180Y-65138840D02*
X142973640Y-65135860D01*
X143052500Y-65144060D02*
X143013180Y-65138840D01*
X143091450Y-65151490D02*
X143052500Y-65144060D01*
X143129920Y-65161120D02*
X143091450Y-65151490D01*
X143167780Y-65172910D02*
X143129920Y-65161120D01*
X143204920Y-65186830D02*
X143167780Y-65172910D01*
X143241210Y-65202830D02*
X143204920Y-65186830D01*
X143276530Y-65220850D02*
X143241210Y-65202830D01*
X143310780Y-65240850D02*
X143276530Y-65220850D01*
X143343840Y-65262760D02*
X143310780Y-65240850D01*
X143375600Y-65286500D02*
X143343840Y-65262760D01*
X158750000Y-77470000D02*
X143375600Y-65286500D01*
%TO.N,MTX*%
X142920400Y-66400400D02*
X142940800Y-65835100D01*
X143004600Y-66759390D02*
X143021490Y-66788810D01*
X142989160Y-66729190D02*
X143004600Y-66759390D01*
X142975200Y-66698280D02*
X142989160Y-66729190D01*
X142962750Y-66666730D02*
X142975200Y-66698280D01*
X142951850Y-66634610D02*
X142962750Y-66666730D01*
X142942510Y-66602000D02*
X142951850Y-66634610D01*
X142934760Y-66568980D02*
X142942510Y-66602000D01*
X142928630Y-66535620D02*
X142934760Y-66568980D01*
X142924110Y-66502010D02*
X142928630Y-66535620D01*
X142921230Y-66468210D02*
X142924110Y-66502010D01*
X142920000Y-66434320D02*
X142921230Y-66468210D01*
X142920400Y-66400400D02*
X142920000Y-66434320D01*
X158750000Y-92710000D02*
X143021500Y-66788800D01*
%TO.N,MRX*%
X158750000Y-90170000D02*
X143619900Y-66425700D01*
D16*
%TO.N,BAT+*%
X138400000Y-48295000D02*
X137800000Y-48895000D01*
X138650000Y-48295000D02*
X138400000Y-48295000D01*
X138659530Y-48294820D02*
X138662700Y-48294680D01*
X138656350Y-48294920D02*
X138659530Y-48294820D01*
X138653180Y-48294980D02*
X138656350Y-48294920D01*
X138650000Y-48295000D02*
X138653180Y-48294980D01*
X150159400Y-47707800D02*
X138662700Y-48294700D01*
X150172680Y-47706150D02*
X150175300Y-47705590D01*
X150170040Y-47706630D02*
X150172680Y-47706150D01*
X150167400Y-47707040D02*
X150170040Y-47706630D01*
X150164740Y-47707370D02*
X150167400Y-47707040D01*
X150162070Y-47707620D02*
X150164740Y-47707370D01*
X150159400Y-47707800D02*
X150162070Y-47707620D01*
X150176900Y-47705200D02*
X150175300Y-47705600D01*
X152750000Y-47500000D02*
X150176900Y-47705200D01*
D15*
%TO.N,CLKINT*%
X136009400Y-65553400D02*
X121940500Y-75576300D01*
%TO.N,SS2*%
X122013100Y-76272500D02*
X134312200Y-74989400D01*
X121987550Y-76274720D02*
X122013100Y-76272530D01*
X121961920Y-76275970D02*
X121987550Y-76274720D01*
X121936270Y-76276290D02*
X121961920Y-76275970D01*
X121910630Y-76275660D02*
X121936270Y-76276290D01*
X121885030Y-76274100D02*
X121910630Y-76275660D01*
X121859500Y-76271600D02*
X121885030Y-76274100D01*
X121834080Y-76268160D02*
X121859500Y-76271600D01*
X121808800Y-76263800D02*
X121834080Y-76268160D01*
X108966700Y-73804000D02*
X121808800Y-76263800D01*
%TO.N,DSI*%
X139441800Y-77777800D02*
X136045000Y-76498800D01*
X139462800Y-77786110D02*
X139441800Y-77777810D01*
X139483520Y-77795080D02*
X139462800Y-77786110D01*
X139503940Y-77804720D02*
X139483520Y-77795080D01*
X139524040Y-77815000D02*
X139503940Y-77804720D01*
X139543800Y-77825940D02*
X139524040Y-77815000D01*
X139563200Y-77837500D02*
X139543800Y-77825940D01*
X139807300Y-77988400D02*
X139563200Y-77837500D01*
X139901600Y-78037230D02*
X139921280Y-78045240D01*
X139882160Y-78028620D02*
X139901600Y-78037230D01*
X139863000Y-78019420D02*
X139882160Y-78028620D01*
X139844120Y-78009650D02*
X139863000Y-78019420D01*
X139825550Y-77999300D02*
X139844120Y-78009650D01*
X139807300Y-77988400D02*
X139825550Y-77999300D01*
X145233800Y-80115300D02*
X139921300Y-78045200D01*
X145261460Y-80126380D02*
X145233830Y-80115230D01*
X145288820Y-80138180D02*
X145261460Y-80126380D01*
X145315880Y-80150630D02*
X145288820Y-80138180D01*
X145342650Y-80163720D02*
X145315880Y-80150630D01*
X145369090Y-80177450D02*
X145342650Y-80163720D01*
X145395200Y-80191800D02*
X145369090Y-80177450D01*
X147320000Y-81280000D02*
X145395200Y-80191800D01*
X133770500Y-76154900D02*
X136045000Y-76498800D01*
X133644020Y-76147360D02*
X133622900Y-76148340D01*
X133665170Y-76147030D02*
X133644020Y-76147360D01*
X133686310Y-76147330D02*
X133665170Y-76147030D01*
X133707430Y-76148260D02*
X133686310Y-76147330D01*
X133728520Y-76149840D02*
X133707430Y-76148260D01*
X133749550Y-76152050D02*
X133728520Y-76149840D01*
X133770500Y-76154900D02*
X133749550Y-76152050D01*
X113746000Y-77370000D02*
X133622900Y-76148300D01*
%TO.N,DSO*%
X143869000Y-83049200D02*
X139023900Y-79316600D01*
X143924960Y-83069840D02*
X143930000Y-83069970D01*
X143919920Y-83069460D02*
X143924960Y-83069840D01*
X143914920Y-83068820D02*
X143919920Y-83069460D01*
X143909950Y-83067940D02*
X143914920Y-83068820D01*
X143905030Y-83066800D02*
X143909950Y-83067940D01*
X143900180Y-83065420D02*
X143905030Y-83066800D01*
X143895400Y-83063790D02*
X143900180Y-83065420D01*
X143890710Y-83061930D02*
X143895400Y-83063790D01*
X143886120Y-83059830D02*
X143890710Y-83061930D01*
X143881650Y-83057500D02*
X143886120Y-83059830D01*
X143877290Y-83054950D02*
X143881650Y-83057500D01*
X143873070Y-83052180D02*
X143877290Y-83054950D01*
X143869000Y-83049200D02*
X143873070Y-83052180D01*
X144030000Y-83070000D02*
X143930000Y-83070000D01*
X144780000Y-83820000D02*
X144030000Y-83070000D01*
%TO.N,SS*%
X116307900Y-83127400D02*
X133665800Y-76847000D01*
X116074100Y-83268710D02*
X116051990Y-83289790D01*
X116097100Y-83248600D02*
X116074100Y-83268710D01*
X116120960Y-83229530D02*
X116097100Y-83248600D01*
X116145620Y-83211510D02*
X116120960Y-83229530D01*
X116171050Y-83194580D02*
X116145620Y-83211510D01*
X116197200Y-83178780D02*
X116171050Y-83194580D01*
X116224000Y-83164130D02*
X116197200Y-83178780D01*
X116251430Y-83150670D02*
X116224000Y-83164130D01*
X116279410Y-83138420D02*
X116251430Y-83150670D01*
X116307900Y-83127400D02*
X116279410Y-83138420D01*
X106209700Y-93099200D02*
X116052000Y-83289800D01*
%TO.N,SCK*%
X116546100Y-83785600D02*
X139195100Y-78432900D01*
X144001600Y-82258100D02*
X139195100Y-78432900D01*
X144663540Y-82524600D02*
X144723700Y-82528770D01*
X144603660Y-82517530D02*
X144663540Y-82524600D01*
X144544190Y-82507590D02*
X144603660Y-82517530D01*
X144485270Y-82494790D02*
X144544190Y-82507590D01*
X144427030Y-82479170D02*
X144485270Y-82494790D01*
X144369610Y-82460750D02*
X144427030Y-82479170D01*
X144313150Y-82439590D02*
X144369610Y-82460750D01*
X144257780Y-82415720D02*
X144313150Y-82439590D01*
X144203620Y-82389220D02*
X144257780Y-82415720D01*
X144150800Y-82360130D02*
X144203620Y-82389220D01*
X144099440Y-82328540D02*
X144150800Y-82360130D01*
X144049670Y-82294500D02*
X144099440Y-82328540D01*
X144001600Y-82258100D02*
X144049670Y-82294500D01*
X145648000Y-82570400D02*
X144723700Y-82528700D01*
X145667460Y-82571750D02*
X145648000Y-82570390D01*
X145686830Y-82574050D02*
X145667460Y-82571750D01*
X145706060Y-82577290D02*
X145686830Y-82574050D01*
X145725110Y-82581460D02*
X145706060Y-82577290D01*
X145743940Y-82586560D02*
X145725110Y-82581460D01*
X145762490Y-82592570D02*
X145743940Y-82586560D01*
X145780740Y-82599480D02*
X145762490Y-82592570D01*
X145798620Y-82607260D02*
X145780740Y-82599480D01*
X145816100Y-82615910D02*
X145798620Y-82607260D01*
X145833140Y-82625410D02*
X145816100Y-82615910D01*
X145849690Y-82635720D02*
X145833140Y-82625410D01*
X145865730Y-82646830D02*
X145849690Y-82635720D01*
X145881200Y-82658700D02*
X145865730Y-82646830D01*
X147320000Y-83820000D02*
X145881200Y-82658700D01*
%TO.N,SDA*%
X149000000Y-60960000D02*
X129926200Y-64561900D01*
%TO.N,SCL*%
X113026200Y-59648500D02*
X115110100Y-61783000D01*
X104371200Y-56437100D02*
X113026200Y-59648500D01*
X115110100Y-61783000D02*
X123362000Y-65230100D01*
X149000000Y-58420000D02*
X158750000Y-62230000D01*
X149000000Y-58420000D02*
X123362000Y-65230100D01*
%TO.N,RESET*%
X148462600Y-80773100D02*
X142410400Y-67130700D01*
X148479290Y-80812530D02*
X148462600Y-80773100D01*
X148494620Y-80852520D02*
X148479290Y-80812530D01*
X148508580Y-80893000D02*
X148494620Y-80852520D01*
X148521130Y-80933940D02*
X148508580Y-80893000D01*
X148532280Y-80975290D02*
X148521130Y-80933940D01*
X148542010Y-81016990D02*
X148532280Y-80975290D01*
X148550300Y-81059000D02*
X148542010Y-81016990D01*
X148629700Y-81501000D02*
X148550300Y-81059000D01*
X148749610Y-81854020D02*
X148771860Y-81895170D01*
X148728910Y-81812080D02*
X148749610Y-81854020D01*
X148709790Y-81769390D02*
X148728910Y-81812080D01*
X148692290Y-81726010D02*
X148709790Y-81769390D01*
X148676420Y-81682010D02*
X148692290Y-81726010D01*
X148662200Y-81637440D02*
X148676420Y-81682010D01*
X148649670Y-81592380D02*
X148662200Y-81637440D01*
X148638830Y-81546880D02*
X148649670Y-81592380D01*
X148629700Y-81501000D02*
X148638830Y-81546880D01*
X149860000Y-83820000D02*
X148771800Y-81895200D01*
D16*
%TO.N,+3V3*%
X123483600Y-58149800D02*
X120850100Y-62976400D01*
X149868800Y-53940700D02*
X158750000Y-54610000D01*
X149853760Y-53940020D02*
X149850000Y-53939990D01*
X149857530Y-53940110D02*
X149853760Y-53940020D01*
X149861290Y-53940250D02*
X149857530Y-53940110D01*
X149865050Y-53940450D02*
X149861290Y-53940250D01*
X149868800Y-53940700D02*
X149865050Y-53940450D01*
X149600000Y-53940000D02*
X149850000Y-53940000D01*
X149000000Y-53340000D02*
X149600000Y-53940000D01*
X126328400Y-53175100D02*
X123483600Y-58149800D01*
%TO.N,GND*%
X136570700Y-50143300D02*
X135260000Y-48895000D01*
X136700140Y-50234980D02*
X136720600Y-50244890D01*
X136680100Y-50224240D02*
X136700140Y-50234980D01*
X136660520Y-50212670D02*
X136680100Y-50224240D01*
X136641440Y-50200310D02*
X136660520Y-50212670D01*
X136622890Y-50187160D02*
X136641440Y-50200310D01*
X136604890Y-50173270D02*
X136622890Y-50187160D01*
X136587490Y-50158640D02*
X136604890Y-50173270D01*
X136570700Y-50143300D02*
X136587490Y-50158640D01*
X149000000Y-55880000D02*
X136720600Y-50244900D01*
X157806200Y-56300200D02*
X156709100Y-57518600D01*
X157851970Y-56251980D02*
X157806210Y-56300200D01*
X157900200Y-56206210D02*
X157851970Y-56251980D01*
X157950760Y-56163030D02*
X157900200Y-56206210D01*
X158003510Y-56122550D02*
X157950760Y-56163030D01*
X158058310Y-56084890D02*
X158003510Y-56122550D01*
X158115000Y-56050150D02*
X158058310Y-56084890D01*
X158173430Y-56018420D02*
X158115000Y-56050150D01*
X158233440Y-55989800D02*
X158173430Y-56018420D01*
X158294870Y-55964350D02*
X158233440Y-55989800D01*
X158357550Y-55942160D02*
X158294870Y-55964350D01*
X158421300Y-55923270D02*
X158357550Y-55942160D01*
X158485950Y-55907750D02*
X158421300Y-55923270D01*
X158551330Y-55895640D02*
X158485950Y-55907750D01*
X158617250Y-55886960D02*
X158551330Y-55895640D01*
X158683530Y-55881740D02*
X158617250Y-55886960D01*
X158750000Y-55880000D02*
X158683530Y-55881740D01*
X159916160Y-54107040D02*
X159883940Y-54038080D01*
X159944190Y-54177800D02*
X159916160Y-54107040D01*
X159967940Y-54250110D02*
X159944190Y-54177800D01*
X159987310Y-54323710D02*
X159967940Y-54250110D01*
X160002240Y-54398350D02*
X159987310Y-54323710D01*
X160012670Y-54473740D02*
X160002240Y-54398350D01*
X160018560Y-54549620D02*
X160012670Y-54473740D01*
X160019900Y-54625720D02*
X160018560Y-54549620D01*
X160016680Y-54701760D02*
X160019900Y-54625720D01*
X160008910Y-54777480D02*
X160016680Y-54701760D01*
X159996620Y-54852590D02*
X160008910Y-54777480D01*
X159979840Y-54926830D02*
X159996620Y-54852590D01*
X159958660Y-54999930D02*
X159979840Y-54926830D01*
X159933130Y-55071640D02*
X159958660Y-54999930D01*
X159903350Y-55141680D02*
X159933130Y-55071640D01*
X159869430Y-55209810D02*
X159903350Y-55141680D01*
X159831490Y-55275790D02*
X159869430Y-55209810D01*
X159789660Y-55339380D02*
X159831490Y-55275790D01*
X159744100Y-55400350D02*
X159789660Y-55339380D01*
X159694970Y-55458480D02*
X159744100Y-55400350D01*
X159642450Y-55513570D02*
X159694970Y-55458480D01*
X159586720Y-55565400D02*
X159642450Y-55513570D01*
X159527990Y-55613810D02*
X159586720Y-55565400D01*
X159466460Y-55658610D02*
X159527990Y-55613810D01*
X159402360Y-55699650D02*
X159466460Y-55658610D01*
X159335910Y-55736770D02*
X159402360Y-55699650D01*
X159267360Y-55769840D02*
X159335910Y-55736770D01*
X159196950Y-55798750D02*
X159267360Y-55769840D01*
X159124940Y-55823390D02*
X159196950Y-55798750D01*
X159051580Y-55843670D02*
X159124940Y-55823390D01*
X158977140Y-55859520D02*
X159051580Y-55843670D01*
X158901880Y-55870890D02*
X158977140Y-55859520D01*
X158826080Y-55877720D02*
X158901880Y-55870890D01*
X158750000Y-55880000D02*
X158826080Y-55877720D01*
X159376800Y-53032600D02*
X159883900Y-54038100D01*
X159372210Y-53023020D02*
X159376790Y-53032600D01*
X159368050Y-53013260D02*
X159372210Y-53023020D01*
X159364290Y-53003320D02*
X159368050Y-53013260D01*
X159360970Y-52993240D02*
X159364290Y-53003320D01*
X159358070Y-52983030D02*
X159360970Y-52993240D01*
X159355620Y-52972700D02*
X159358070Y-52983030D01*
X159353600Y-52962270D02*
X159355620Y-52972700D01*
X159352030Y-52951770D02*
X159353600Y-52962270D01*
X159350900Y-52941210D02*
X159352030Y-52951770D01*
X159350230Y-52930620D02*
X159350900Y-52941210D01*
X159350000Y-52920000D02*
X159350230Y-52930620D01*
X159350000Y-52670000D02*
X159350000Y-52920000D01*
X158750000Y-52070000D02*
X159350000Y-52670000D01*
X111840600Y-47707800D02*
X135260000Y-48895000D01*
X111838080Y-47707650D02*
X111840600Y-47707810D01*
X111835570Y-47707420D02*
X111838080Y-47707650D01*
X111833060Y-47707110D02*
X111835570Y-47707420D01*
X111830560Y-47706740D02*
X111833060Y-47707110D01*
X111828070Y-47706310D02*
X111830560Y-47706740D01*
X111825600Y-47705800D02*
X111828070Y-47706310D01*
X111823000Y-47705200D02*
X111825600Y-47705800D01*
X109250000Y-47500000D02*
X111823000Y-47705200D01*
X157542200Y-60082500D02*
X156709100Y-57518600D01*
X158677500Y-60957900D02*
X158750000Y-60959980D01*
X158605240Y-60951700D02*
X158677500Y-60957900D01*
X158533450Y-60941380D02*
X158605240Y-60951700D01*
X158462370Y-60926970D02*
X158533450Y-60941380D01*
X158392220Y-60908540D02*
X158462370Y-60926970D01*
X158323240Y-60886120D02*
X158392220Y-60908540D01*
X158255650Y-60859810D02*
X158323240Y-60886120D01*
X158189680Y-60829680D02*
X158255650Y-60859810D01*
X158125530Y-60795840D02*
X158189680Y-60829680D01*
X158063420Y-60758390D02*
X158125530Y-60795840D01*
X158003550Y-60717450D02*
X158063420Y-60758390D01*
X157946110Y-60673160D02*
X158003550Y-60717450D01*
X157891300Y-60625670D02*
X157946110Y-60673160D01*
X157839290Y-60575120D02*
X157891300Y-60625670D01*
X157790240Y-60521690D02*
X157839290Y-60575120D01*
X157744330Y-60465540D02*
X157790240Y-60521690D01*
X157701700Y-60406870D02*
X157744330Y-60465540D01*
X157662480Y-60345850D02*
X157701700Y-60406870D01*
X157626820Y-60282700D02*
X157662480Y-60345850D01*
X157594810Y-60217620D02*
X157626820Y-60282700D01*
X157566580Y-60150810D02*
X157594810Y-60217620D01*
X157542200Y-60082500D02*
X157566580Y-60150810D01*
X158824180Y-60962200D02*
X158750000Y-60960040D01*
X158898110Y-60968700D02*
X158824180Y-60962200D01*
X158971530Y-60979510D02*
X158898110Y-60968700D01*
X159044200Y-60994580D02*
X158971530Y-60979510D01*
X159115860Y-61013880D02*
X159044200Y-60994580D01*
X159186270Y-61037320D02*
X159115860Y-61013880D01*
X159255200Y-61064840D02*
X159186270Y-61037320D01*
X159322390Y-61096340D02*
X159255200Y-61064840D01*
X159387630Y-61131710D02*
X159322390Y-61096340D01*
X159450700Y-61170840D02*
X159387630Y-61131710D01*
X159511370Y-61213570D02*
X159450700Y-61170840D01*
X159569440Y-61259780D02*
X159511370Y-61213570D01*
X159624720Y-61309310D02*
X159569440Y-61259780D01*
X159677000Y-61361970D02*
X159624720Y-61309310D01*
X159726130Y-61417600D02*
X159677000Y-61361970D01*
X159771910Y-61476010D02*
X159726130Y-61417600D01*
X159814210Y-61536990D02*
X159771910Y-61476010D01*
X159852870Y-61600330D02*
X159814210Y-61536990D01*
X159887770Y-61665830D02*
X159852870Y-61600330D01*
X159918780Y-61733250D02*
X159887770Y-61665830D01*
X159945800Y-61802370D02*
X159918780Y-61733250D01*
X159968740Y-61872950D02*
X159945800Y-61802370D01*
X159987520Y-61944750D02*
X159968740Y-61872950D01*
X160002060Y-62017530D02*
X159987520Y-61944750D01*
X160012340Y-62091030D02*
X160002060Y-62017530D01*
X160018300Y-62165000D02*
X160012340Y-62091030D01*
X160148200Y-64698300D02*
X160018300Y-62165000D01*
X160148970Y-64716220D02*
X160148160Y-64698300D01*
X160149540Y-64734140D02*
X160148970Y-64716220D01*
X160149890Y-64752070D02*
X160149540Y-64734140D01*
X160150000Y-64770000D02*
X160149890Y-64752070D01*
X160150000Y-82550000D02*
X160150000Y-64770000D01*
X160148340Y-82618090D02*
X160149990Y-82550000D01*
X160143370Y-82686010D02*
X160148340Y-82618090D01*
X160135110Y-82753610D02*
X160143370Y-82686010D01*
X160123570Y-82820730D02*
X160135110Y-82753610D01*
X160108770Y-82887210D02*
X160123570Y-82820730D01*
X160090770Y-82952890D02*
X160108770Y-82887210D01*
X160069590Y-83017620D02*
X160090770Y-82952890D01*
X160045280Y-83081240D02*
X160069590Y-83017620D01*
X160017910Y-83143610D02*
X160045280Y-83081240D01*
X159987550Y-83204570D02*
X160017910Y-83143610D01*
X159954250Y-83263980D02*
X159987550Y-83204570D01*
X159918100Y-83321700D02*
X159954250Y-83263980D01*
X158750000Y-85090000D02*
X159918100Y-83321700D01*
X156709100Y-57518600D02*
X149000000Y-55880000D01*
D15*
%TO.N,OPTION*%
X140079600Y-76922700D02*
X140336900Y-77275100D01*
X140079600Y-76922700D02*
X139980700Y-77347700D01*
X138808600Y-70684200D02*
X138551300Y-70331800D01*
X138808600Y-70684200D02*
X138907500Y-70259200D01*
%TO.N,PB0*%
X136570700Y-71867900D02*
X136474600Y-72293500D01*
X136570700Y-71867900D02*
X136185600Y-72072900D01*
X157895700Y-76793000D02*
X158683500Y-76723000D01*
X157895700Y-76793000D02*
X158007500Y-77576000D01*
%TO.N,MTX*%
X142923500Y-66314800D02*
X142756100Y-65911800D01*
X142923500Y-66314800D02*
X143119500Y-65925000D01*
X158184600Y-91778100D02*
X158947600Y-91986500D01*
X158184600Y-91778100D02*
X158017000Y-92551100D01*
%TO.N,MRX*%
X143877800Y-66830500D02*
X143511400Y-66593700D01*
X143877800Y-66830500D02*
X143818000Y-66398300D01*
X158164300Y-89250800D02*
X158931700Y-89442400D01*
X158164300Y-89250800D02*
X158013700Y-90027200D01*
%TO.N,CLKINT*%
X122331400Y-75297800D02*
X122113900Y-75676000D01*
X122331400Y-75297800D02*
X121902900Y-75379800D01*
X135618500Y-65831900D02*
X135836000Y-65453700D01*
X135618500Y-65831900D02*
X136047000Y-65749900D01*
%TO.N,SS2*%
X133834800Y-75039200D02*
X134210400Y-74817200D01*
X133834800Y-75039200D02*
X134248200Y-75178800D01*
X109438100Y-73894300D02*
X109014300Y-73998300D01*
X109438100Y-73894300D02*
X109082700Y-73641100D01*
%TO.N,DSI*%
X136494200Y-76667900D02*
X136058900Y-76698300D01*
X136494200Y-76667900D02*
X136187100Y-76358100D01*
X146371100Y-80743600D02*
X147138500Y-80552200D01*
X146371100Y-80743600D02*
X146602900Y-81499800D01*
X135570400Y-76427000D02*
X135989800Y-76306500D01*
X135570400Y-76427000D02*
X135935400Y-76666100D01*
X114225100Y-77340600D02*
X113840300Y-77546400D01*
X114225100Y-77340600D02*
X113818100Y-77183400D01*
%TO.N,DSO*%
X139404100Y-79609500D02*
X138979000Y-79511500D01*
X139404100Y-79609500D02*
X139200800Y-79223500D01*
%TO.N,SS*%
X133214400Y-77010300D02*
X133525500Y-76704400D01*
X133214400Y-77010300D02*
X133649300Y-77046400D01*
X106549700Y-92760400D02*
X106397000Y-93169200D01*
X106549700Y-92760400D02*
X106140400Y-92911600D01*
%TO.N,SCK*%
X138728000Y-78543300D02*
X139072200Y-78275200D01*
X138728000Y-78543300D02*
X139155800Y-78629000D01*
X117013200Y-83675200D02*
X116669000Y-83943300D01*
X117013200Y-83675200D02*
X116585400Y-83589500D01*
X139570700Y-78731800D02*
X139147100Y-78627100D01*
X139570700Y-78731800D02*
X139373500Y-78342500D01*
X146471800Y-83135400D02*
X147260200Y-83072400D01*
X146471800Y-83135400D02*
X146576600Y-83919400D01*
%TO.N,SDA*%
X130397900Y-64472800D02*
X130041800Y-64725100D01*
X130397900Y-64472800D02*
X129974400Y-64367700D01*
X147928900Y-61162300D02*
X148391900Y-60521000D01*
X147928900Y-61162300D02*
X148593900Y-61590600D01*
%TO.N,SCL*%
X114774800Y-61439500D02*
X115182000Y-61596400D01*
X114774800Y-61439500D02*
X114921800Y-61850400D01*
X113361500Y-59992000D02*
X112954300Y-59835100D01*
X113361500Y-59992000D02*
X113214500Y-59581100D01*
X112576200Y-59481500D02*
X113011400Y-59449100D01*
X112576200Y-59481500D02*
X112884800Y-59789900D01*
X104821200Y-56604100D02*
X104386000Y-56636500D01*
X104821200Y-56604100D02*
X104512600Y-56295700D01*
X122919100Y-65045100D02*
X123355200Y-65030200D01*
X122919100Y-65045100D02*
X123215000Y-65365800D01*
X115553000Y-61968000D02*
X115116900Y-61982900D01*
X115553000Y-61968000D02*
X115257100Y-61647300D01*
X157734800Y-61833300D02*
X158467500Y-61535300D01*
X157734800Y-61833300D02*
X158071300Y-62549100D01*
X150015200Y-58816700D02*
X149282500Y-59114700D01*
X150015200Y-58816700D02*
X149678700Y-58100900D01*
X123825900Y-65106900D02*
X123489200Y-65384400D01*
X123825900Y-65106900D02*
X123395800Y-65033000D01*
X147946500Y-58699800D02*
X148361500Y-58026500D01*
X147946500Y-58699800D02*
X148640900Y-59078500D01*
%TO.N,RESET*%
X142605000Y-67569500D02*
X142278000Y-67280600D01*
X142605000Y-67569500D02*
X142610400Y-67133200D01*
X149323600Y-82871100D02*
X150079800Y-83102900D01*
X149323600Y-82871100D02*
X149132200Y-83638500D01*
D16*
%TO.N,+3V3*%
X121022500Y-62660400D02*
X120999700Y-62986800D01*
X121022500Y-62660400D02*
X120760300Y-62856200D01*
X123311200Y-58465800D02*
X123334000Y-58139400D01*
X123311200Y-58465800D02*
X123573400Y-58270000D01*
X157314100Y-54501800D02*
X158541700Y-54047300D01*
X157314100Y-54501800D02*
X158459700Y-55135100D01*
X123662300Y-57837300D02*
X123633000Y-58163200D01*
X123662300Y-57837300D02*
X123396200Y-58027800D01*
X126149700Y-53487600D02*
X126179000Y-53161700D01*
X126149700Y-53487600D02*
X126415800Y-53297100D01*
%TO.N,GND*%
X136302800Y-49888100D02*
X135064800Y-49462400D01*
X136302800Y-49888100D02*
X135817200Y-48672400D01*
X147691200Y-55279400D02*
X149000300Y-55280000D01*
X147691200Y-55279400D02*
X148545300Y-56271400D01*
X133821800Y-48822100D02*
X135037900Y-48337500D01*
X133821800Y-48822100D02*
X134982700Y-49427100D01*
X159543700Y-83888500D02*
X159342900Y-85182000D01*
X159543700Y-83888500D02*
X158432700Y-84580800D01*
X150408500Y-56179400D02*
X149131100Y-56465500D01*
X150408500Y-56179400D02*
X149357900Y-55398500D01*
%TD*%
M02*
