M48
; DRILL file {KiCad (6.0.4)} date Sun Mar 20 23:12:26 2022
; FORMAT={-:-/ absolute / inch / decimal}
; #@! TF.CreationDate,2022-03-20T23:12:26-04:00
; #@! TF.GenerationSoftware,Kicad,Pcbnew,(6.0.4)
; #@! TF.FileFunction,Plated,1,2,PTH
FMAT,2
INCH
; #@! TA.AperFunction,Plated,PTH,ViaDrill
T1C0.0118
; #@! TA.AperFunction,Plated,PTH,ViaDrill
T2C0.0197
; #@! TA.AperFunction,Plated,PTH,ComponentDrill
T3C0.0276
; #@! TA.AperFunction,Plated,PTH,ComponentDrill
T4C0.0394
%
G90
G05
T1
X4.1091Y-2.2219
X4.1815Y-3.6653
X4.29Y-2.9057
X4.4499Y-2.3484
X4.4782Y-3.0461
X4.5319Y-2.4324
X4.5884Y-3.2986
X4.8008Y-2.9754
X4.8568Y-2.5681
X5.1152Y-2.5418
X5.2624Y-3.0255
X5.2879Y-2.9523
X5.3547Y-2.5808
X5.3561Y-3.0118
X5.3653Y-2.8445
X5.4611Y-2.7643
X5.4734Y-3.1227
X5.4801Y-3.0879
X5.5187Y-3.047
X5.6067Y-2.6429
X5.6276Y-2.5919
X5.6543Y-2.6152
T2
X4.7579Y-2.4794
X4.8616Y-2.2894
X4.9736Y-2.0935
T4
X5.3252Y-1.925
X5.4252Y-1.925
X5.7Y-3.2
X5.7Y-3.3
X5.8Y-3.2
X5.8Y-3.3
X5.8661Y-2.1
X5.8661Y-2.2
X5.8661Y-2.3
X5.8661Y-2.4
X5.8661Y-2.5
X5.8661Y-2.6
X5.9Y-3.2
X5.9Y-3.3
X6.25Y-2.05
X6.25Y-2.15
X6.25Y-2.25
X6.25Y-2.35
X6.25Y-2.45
X6.25Y-2.55
X6.25Y-2.65
X6.25Y-2.75
X6.25Y-2.85
X6.25Y-2.95
X6.25Y-3.05
X6.25Y-3.25
X6.25Y-3.35
X6.25Y-3.45
X6.25Y-3.55
X6.25Y-3.65
X6.25Y-3.75
T3
G00X4.2323Y-1.8701
M15
G01X4.3701Y-1.8701
M16
G05
G00X5.9449Y-1.8701
M15
G01X6.0827Y-1.8701
M16
G05
T0
M30
