%TF.GenerationSoftware,KiCad,Pcbnew,(6.0.4)*%
%TF.CreationDate,2022-03-20T23:12:24-04:00*%
%TF.ProjectId,main,6d61696e-2e6b-4696-9361-645f70636258,rev?*%
%TF.SameCoordinates,Original*%
%TF.FileFunction,Paste,Top*%
%TF.FilePolarity,Positive*%
%FSLAX46Y46*%
G04 Gerber Fmt 4.6, Leading zero omitted, Abs format (unit mm)*
G04 Created by KiCad (PCBNEW (6.0.4)) date 2022-03-20 23:12:24*
%MOMM*%
%LPD*%
G01*
G04 APERTURE LIST*
G04 Aperture macros list*
%AMRoundRect*
0 Rectangle with rounded corners*
0 $1 Rounding radius*
0 $2 $3 $4 $5 $6 $7 $8 $9 X,Y pos of 4 corners*
0 Add a 4 corners polygon primitive as box body*
4,1,4,$2,$3,$4,$5,$6,$7,$8,$9,$2,$3,0*
0 Add four circle primitives for the rounded corners*
1,1,$1+$1,$2,$3*
1,1,$1+$1,$4,$5*
1,1,$1+$1,$6,$7*
1,1,$1+$1,$8,$9*
0 Add four rect primitives between the rounded corners*
20,1,$1+$1,$2,$3,$4,$5,0*
20,1,$1+$1,$4,$5,$6,$7,0*
20,1,$1+$1,$6,$7,$8,$9,0*
20,1,$1+$1,$8,$9,$2,$3,0*%
%AMRotRect*
0 Rectangle, with rotation*
0 The origin of the aperture is its center*
0 $1 length*
0 $2 width*
0 $3 Rotation angle, in degrees counterclockwise*
0 Add horizontal line*
21,1,$1,$2,0,0,$3*%
%AMFreePoly0*
4,1,9,3.862500,-0.866500,0.737500,-0.866500,0.737500,-0.450000,-0.737500,-0.450000,-0.737500,0.450000,0.737500,0.450000,0.737500,0.866500,3.862500,0.866500,3.862500,-0.866500,3.862500,-0.866500,$1*%
%AMFreePoly1*
4,1,6,0.450000,-0.800000,-0.450000,-0.800000,-0.450000,0.530000,-0.180000,0.800000,0.450000,0.800000,0.450000,-0.800000,0.450000,-0.800000,$1*%
G04 Aperture macros list end*
%ADD10RoundRect,0.250000X-0.250000X-0.475000X0.250000X-0.475000X0.250000X0.475000X-0.250000X0.475000X0*%
%ADD11RoundRect,0.250000X0.250000X0.475000X-0.250000X0.475000X-0.250000X-0.475000X0.250000X-0.475000X0*%
%ADD12RoundRect,0.243750X-0.243750X-0.456250X0.243750X-0.456250X0.243750X0.456250X-0.243750X0.456250X0*%
%ADD13RotRect,1.600000X0.550000X315.000000*%
%ADD14RotRect,1.600000X0.550000X45.000000*%
%ADD15R,0.900000X1.300000*%
%ADD16FreePoly0,90.000000*%
%ADD17RoundRect,0.150000X-0.825000X-0.150000X0.825000X-0.150000X0.825000X0.150000X-0.825000X0.150000X0*%
%ADD18RoundRect,0.150000X-0.650000X-0.150000X0.650000X-0.150000X0.650000X0.150000X-0.650000X0.150000X0*%
%ADD19RoundRect,0.250000X-0.450000X0.262500X-0.450000X-0.262500X0.450000X-0.262500X0.450000X0.262500X0*%
%ADD20R,0.500000X0.350000*%
%ADD21RoundRect,0.125000X-0.137500X0.125000X-0.137500X-0.125000X0.137500X-0.125000X0.137500X0.125000X0*%
%ADD22R,1.800000X1.100000*%
%ADD23FreePoly1,0.000000*%
%ADD24R,0.550000X0.250000*%
%ADD25RoundRect,0.100000X-0.712500X-0.100000X0.712500X-0.100000X0.712500X0.100000X-0.712500X0.100000X0*%
%ADD26RoundRect,0.250000X-0.475000X0.250000X-0.475000X-0.250000X0.475000X-0.250000X0.475000X0.250000X0*%
%ADD27RoundRect,0.150000X-0.875000X-0.150000X0.875000X-0.150000X0.875000X0.150000X-0.875000X0.150000X0*%
%ADD28RoundRect,0.250000X0.450000X-0.262500X0.450000X0.262500X-0.450000X0.262500X-0.450000X-0.262500X0*%
%ADD29RoundRect,0.125000X-0.475000X-0.125000X0.475000X-0.125000X0.475000X0.125000X-0.475000X0.125000X0*%
%ADD30RoundRect,0.250000X-0.262500X-0.450000X0.262500X-0.450000X0.262500X0.450000X-0.262500X0.450000X0*%
%ADD31RoundRect,0.250000X0.262500X0.450000X-0.262500X0.450000X-0.262500X-0.450000X0.262500X-0.450000X0*%
%ADD32RoundRect,0.250000X0.159099X-0.512652X0.512652X-0.159099X-0.159099X0.512652X-0.512652X0.159099X0*%
%ADD33RoundRect,0.250000X0.475000X-0.250000X0.475000X0.250000X-0.475000X0.250000X-0.475000X-0.250000X0*%
%ADD34RoundRect,0.062500X0.062500X-0.212500X0.062500X0.212500X-0.062500X0.212500X-0.062500X-0.212500X0*%
%ADD35R,0.350000X0.375000*%
%ADD36R,0.375000X0.350000*%
G04 APERTURE END LIST*
D10*
%TO.C,C1*%
X133670000Y-52070000D03*
X135570000Y-52070000D03*
%TD*%
D11*
%TO.C,C2*%
X136205000Y-59690000D03*
X134305000Y-59690000D03*
%TD*%
D12*
%TO.C,D1*%
X124062500Y-82000000D03*
X125937500Y-82000000D03*
%TD*%
D13*
%TO.C,U1*%
X137404695Y-66134897D03*
X136839010Y-66700583D03*
X136273324Y-67266268D03*
X135707639Y-67831953D03*
X135141953Y-68397639D03*
X134576268Y-68963324D03*
X134010583Y-69529010D03*
X133444897Y-70094695D03*
D14*
X133444897Y-72145305D03*
X134010583Y-72710990D03*
X134576268Y-73276676D03*
X135141953Y-73842361D03*
X135707639Y-74408047D03*
X136273324Y-74973732D03*
X136839010Y-75539417D03*
X137404695Y-76105103D03*
D13*
X139455305Y-76105103D03*
X140020990Y-75539417D03*
X140586676Y-74973732D03*
X141152361Y-74408047D03*
X141718047Y-73842361D03*
X142283732Y-73276676D03*
X142849417Y-72710990D03*
X143415103Y-72145305D03*
D14*
X143415103Y-70094695D03*
X142849417Y-69529010D03*
X142283732Y-68963324D03*
X141718047Y-68397639D03*
X141152361Y-67831953D03*
X140586676Y-67266268D03*
X140020990Y-66700583D03*
X139455305Y-66134897D03*
%TD*%
D15*
%TO.C,U2*%
X133755000Y-57530000D03*
D16*
X135255000Y-57442500D03*
D15*
X136755000Y-57530000D03*
%TD*%
D17*
%TO.C,U3*%
X120525000Y-73095000D03*
X120525000Y-74365000D03*
X120525000Y-75635000D03*
X120525000Y-76905000D03*
X125475000Y-76905000D03*
X125475000Y-75635000D03*
X125475000Y-74365000D03*
X125475000Y-73095000D03*
%TD*%
D18*
%TO.C,U4*%
X105400000Y-73095000D03*
X105400000Y-74365000D03*
X105400000Y-75635000D03*
X105400000Y-76905000D03*
X112600000Y-76905000D03*
X112600000Y-75635000D03*
X112600000Y-74365000D03*
X112600000Y-73095000D03*
%TD*%
D19*
%TO.C,R1*%
X139065000Y-52427500D03*
X139065000Y-54252500D03*
%TD*%
D20*
%TO.C,U5*%
X104025000Y-53025000D03*
X104025000Y-53675000D03*
X104025000Y-54325000D03*
X104025000Y-54975000D03*
X101975000Y-54975000D03*
X101975000Y-54325000D03*
X101975000Y-53675000D03*
X101975000Y-53025000D03*
%TD*%
D21*
%TO.C,U6*%
X112264500Y-52800000D03*
X112264500Y-53600000D03*
X112264500Y-54400000D03*
X112264500Y-55200000D03*
X109889500Y-55200000D03*
X109889500Y-54400000D03*
X109889500Y-53600000D03*
X109889500Y-52800000D03*
%TD*%
D22*
%TO.C,SW1*%
X141900000Y-96850000D03*
X148100000Y-96850000D03*
X141900000Y-93150000D03*
X148100000Y-93150000D03*
%TD*%
D23*
%TO.C,U7*%
X117000000Y-61000000D03*
D24*
X115825000Y-60250000D03*
X115825000Y-60750000D03*
X115825000Y-61250000D03*
X115825000Y-61750000D03*
X118175000Y-61750000D03*
X118175000Y-61250000D03*
X118175000Y-60750000D03*
X118175000Y-60250000D03*
%TD*%
D25*
%TO.C,U8*%
X118297500Y-53025000D03*
X118297500Y-53675000D03*
X118297500Y-54325000D03*
X118297500Y-54975000D03*
X122522500Y-54975000D03*
X122522500Y-54325000D03*
X122522500Y-53675000D03*
X122522500Y-53025000D03*
%TD*%
D26*
%TO.C,C3*%
X141605000Y-56200000D03*
X141605000Y-58100000D03*
%TD*%
D19*
%TO.C,R2*%
X139065000Y-56237500D03*
X139065000Y-58062500D03*
%TD*%
%TO.C,R3*%
X141224000Y-87352500D03*
X141224000Y-89177500D03*
%TD*%
D27*
%TO.C,U9*%
X103350000Y-87555000D03*
X103350000Y-88825000D03*
X103350000Y-90095000D03*
X103350000Y-91365000D03*
X103350000Y-92635000D03*
X103350000Y-93905000D03*
X103350000Y-95175000D03*
X103350000Y-96445000D03*
X112650000Y-96445000D03*
X112650000Y-95175000D03*
X112650000Y-93905000D03*
X112650000Y-92635000D03*
X112650000Y-91365000D03*
X112650000Y-90095000D03*
X112650000Y-88825000D03*
X112650000Y-87555000D03*
%TD*%
D26*
%TO.C,C4*%
X151638000Y-93284000D03*
X151638000Y-95184000D03*
%TD*%
%TO.C,C5*%
X107500000Y-60050000D03*
X107500000Y-61950000D03*
%TD*%
D12*
%TO.C,D2*%
X124062500Y-88000000D03*
X125937500Y-88000000D03*
%TD*%
%TO.C,D3*%
X124062500Y-85000000D03*
X125937500Y-85000000D03*
%TD*%
D28*
%TO.C,R4*%
X119380000Y-94892500D03*
X119380000Y-93067500D03*
%TD*%
D22*
%TO.C,SW2*%
X121900000Y-96850000D03*
X128100000Y-96850000D03*
X121900000Y-93150000D03*
X128100000Y-93150000D03*
%TD*%
D20*
%TO.C,U11*%
X126753000Y-60001000D03*
X126753000Y-60651000D03*
X126753000Y-61301000D03*
X126753000Y-61951000D03*
X125153000Y-61951000D03*
X125153000Y-61301000D03*
X125153000Y-60651000D03*
X125153000Y-60001000D03*
%TD*%
D29*
%TO.C,U10*%
X109850000Y-59125000D03*
X109850000Y-60375000D03*
X109850000Y-61625000D03*
X109850000Y-62875000D03*
X112150000Y-62875000D03*
X112150000Y-61625000D03*
X112150000Y-60375000D03*
X112150000Y-59125000D03*
%TD*%
D19*
%TO.C,R5*%
X138430000Y-87352500D03*
X138430000Y-89177500D03*
%TD*%
D30*
%TO.C,R6*%
X144375500Y-60960000D03*
X146200500Y-60960000D03*
%TD*%
%TO.C,R7*%
X144375500Y-58420000D03*
X146200500Y-58420000D03*
%TD*%
D22*
%TO.C,SW3*%
X131900000Y-96850000D03*
X138100000Y-96850000D03*
X138100000Y-93150000D03*
X131900000Y-93150000D03*
%TD*%
D31*
%TO.C,R8*%
X129912500Y-82000000D03*
X128087500Y-82000000D03*
%TD*%
%TO.C,R9*%
X129912500Y-88000000D03*
X128087500Y-88000000D03*
%TD*%
%TO.C,R10*%
X129912500Y-85000000D03*
X128087500Y-85000000D03*
%TD*%
D26*
%TO.C,C13*%
X128000000Y-75443000D03*
X128000000Y-77343000D03*
%TD*%
%TO.C,C14*%
X125077000Y-53050000D03*
X125077000Y-54950000D03*
%TD*%
D32*
%TO.C,C9*%
X132932249Y-67219751D03*
X134275751Y-65876249D03*
%TD*%
D33*
%TO.C,C7*%
X115500000Y-96950000D03*
X115500000Y-95050000D03*
%TD*%
D26*
%TO.C,C8*%
X103013000Y-75250000D03*
X103013000Y-77150000D03*
%TD*%
%TO.C,C15*%
X123221300Y-59189500D03*
X123221300Y-61089500D03*
%TD*%
D33*
%TO.C,C10*%
X114441000Y-54179000D03*
X114441000Y-52279000D03*
%TD*%
%TO.C,C12*%
X106077000Y-54179000D03*
X106077000Y-52279000D03*
%TD*%
D26*
%TO.C,C17*%
X114000000Y-67050000D03*
X114000000Y-68950000D03*
%TD*%
D34*
%TO.C,U12*%
X102500000Y-61375000D03*
X103000000Y-61375000D03*
X103500000Y-61375000D03*
X103500000Y-58625000D03*
X103000000Y-58625000D03*
X102500000Y-58625000D03*
%TD*%
D35*
%TO.C,U13*%
X117750000Y-67237500D03*
X117250000Y-67237500D03*
X116750000Y-67237500D03*
X116250000Y-67237500D03*
D36*
X116237500Y-67750000D03*
X116237500Y-68250000D03*
D35*
X116250000Y-68762500D03*
X116750000Y-68762500D03*
X117250000Y-68762500D03*
X117750000Y-68762500D03*
D36*
X117762500Y-68250000D03*
X117762500Y-67750000D03*
%TD*%
D33*
%TO.C,C6*%
X120500000Y-61950000D03*
X120500000Y-60050000D03*
%TD*%
D32*
%TO.C,C11*%
X142711249Y-76363751D03*
X144054751Y-75020249D03*
%TD*%
D10*
%TO.C,C16*%
X102050000Y-63500000D03*
X103950000Y-63500000D03*
%TD*%
M02*
